<svg xmlns="http://www.w3.org/2000/svg" viewBox="0 0 384 512">
<path fill="#ffffff" d="M318.7 268.7c-.3-37.3 16.4-65.4 50-86.2-18.8-26.9-46.9-41.8-84.2-44.5-35.3-2.6-74.3 20.7-88 20.7-14.4 0-47.5-19.7-73.6-19.2C63.3 140.4 6 183.6 6 267.4c0 26.6 5.9 54.6 17.7 83.7 15.8 37.3 72.8 128.5 132.3 126.3 31.2-1.2 53.1-22.1 72.5-22.1 19.1 0 46.8 21.7 78.4 20.8 59.9-1.9 111.2-82.3 126.8-119.7-80.7-30.5-95-143.2-14.9-187.7zM241 75.5c27.9-33.5 25.4-64 24.6-75.5-24.7 1.4-53.5 17.1-70.2 37.5-18.1 21.5-30.1 51.9-27.8 81.9 26.8 2.1 54.4-14.4 73.4-43.9z"/>
</svg>