<svg xmlns="http://www.w3.org/2000/svg" viewBox="0 0 48 48">
<path fill="#FFC107" d="M43.6 20.5H42V20H24v8h11.3C33.7 33.7 29.3 37 24 37c-7.2 0-13-5.8-13-13s5.8-13 13-13c3.3 0 6.3 1.2 8.6 3.2l5.7-5.7C34.2 4.4 29.4 2 24 2 12.4 2 3 11.4 3 23s9.4 21 21 21 21-9.4 21-21c0-1.4-.1-2.7-.4-4z"/>
<path fill="#FF3D00" d="M6.3 14.7l6.6 4.8C15.4 15.2 19.4 13 24 13c3.3 0 6.3 1.2 8.6 3.2l5.7-5.7C34.2 4.4 29.4 2 24 2c-7.4 0-13.8 3.8-17.7 9.6z"/>
<path fill="#4CAF50" d="M24 44c5.2 0 10-2 13.6-5.3L31 33.3C29 35 26.6 36 24 36c-5.2 0-9.5-3.3-11.2-8H6.1c2.5 8 10 14 17.9 14z"/>
<path fill="#1976D2" d="M43.6 20.5H42V20H24v8h11.3c-1.1 3.2-3.5 5.9-6.3 7.3l6.6 5.3c3.8-3.5 6.3-8.7 6.3-15.1 0-1.4-.1-2.7-.3-4z"/>
</svg>