<svg width="400" height="400" viewBox="0 0 400 400" fill="none" xmlns="http://www.w3.org/2000/svg">
<path d="M289.602 151.392V119.628H275.248V121.869H279.27V151.392H274.092V153.482H294.78V151.392H289.602Z" fill="#262626"/>
<path d="M82.0214 99.6135H80.138C80.0637 101.227 79.2211 101.91 77.6103 101.91C74.3886 101.91 69.6924 98 64.1784 98C48.4915 98 39 113.489 39 127.129C39 140.77 48.033 154.422 63.1872 154.422C72.3689 154.422 75.8136 150.053 78.267 150.053C79.8778 150.053 80.1752 151.468 80.1752 153.193H82.2569V134.415H80.1752L79.7167 137.021C78.6511 143.227 73.831 152.399 63.9554 152.399C55.2322 152.399 51.8618 144.84 51.8618 126.211C51.8618 106.663 56.4465 100.085 64.1784 100.085C72.9017 100.085 78.8989 109.878 80.1256 117.697H82.009V99.6011L82.0214 99.6135Z" fill="#262626"/>
<path d="M109.751 144.576C109.601 148.551 107.323 151.813 103.762 151.813C98.607 151.813 98.3704 147.505 98.3704 144.219C98.3704 140.244 98.8311 137.622 103.762 137.093L109.751 136.49V144.576ZM123.596 147.062C123.596 149.007 122.301 151.259 121.442 151.259C120.073 151.259 119.761 149.831 119.761 147.517V130.274C119.761 121.733 111.643 119.628 103.836 119.628C96.0296 119.628 90.713 123.296 90.713 127.505C90.713 130.127 92.232 132.379 95.6436 132.379C98.5198 132.379 100.263 130.508 100.263 127.887C100.263 124.071 96.2537 124.022 96.2537 123.936C96.2537 122.238 100.711 121.684 103.301 121.684C108.991 121.684 109.751 123.764 109.751 128.256V134.558L102.317 135.161C95.407 135.69 87.899 137.487 87.899 145.277C87.899 151.8 93.8133 154.422 99.6529 154.422C102.616 154.422 107.846 153.302 109.813 149.696C111.183 152.847 113.984 154.422 117.396 154.422C122.326 154.422 125.514 151.505 125.514 147.074H123.584L123.596 147.062Z" fill="#262626"/>
<path d="M297.839 282.103V250.339H281.615V252.58H287.018V282.103H281.615V284.193H303.243V282.103H297.839Z" fill="#262626"/>
<path d="M100.074 167.893L100.124 165.744H82.7986L70.2403 201.836L58.018 165.706H39V167.906H44.1279V211.384C44.1279 214.658 43.3313 217.195 39 217.195V219.295H52.1184V217.195H51.8819C47.7871 217.195 46.194 216.858 46.194 210.697V167.531H46.3433L64.4652 219.307H66.5188L84.1801 168.443H84.3295V217.195H79.2763V219.295H100.099V217.195H95.1453V167.906H100.099L100.074 167.893Z" fill="#262626"/>
<path d="M112.56 199.154V194.12C112.56 189.099 114.788 187.524 117.395 187.524C121.084 187.524 122.23 189.997 122.23 194.12V199.154H112.56ZM112.56 201.197H133.738C133.662 193.099 125.994 185.308 117.936 185.456C108.883 185.456 101.064 193.099 101.064 203.227C101.064 213.356 108.354 220.248 118.175 220.248C127.996 220.248 132.29 214.55 133.977 207.129H131.887C130.2 214.107 126.46 218.057 120.479 218.057C113.353 218.057 112.585 212.593 112.585 207.498V201.197H112.56Z" fill="#262626"/>
<path d="M200.014 264.039V259.006C200.014 253.984 202.242 252.409 204.849 252.409C208.538 252.409 209.684 254.883 209.684 259.006V264.039H200.014ZM200.014 266.082H221.192C221.116 257.984 213.448 250.194 205.39 250.342C196.337 250.342 188.518 257.984 188.518 268.113C188.518 278.241 195.808 285.133 205.629 285.133C215.45 285.133 219.744 279.435 221.431 272.014H219.341C217.654 278.992 213.914 282.942 207.934 282.942C200.807 282.942 200.039 277.478 200.039 272.383V266.082H200.014Z" fill="#262626"/>
<path d="M133.977 166.647V168.554H139.155V217.191H133.977V219.307H154.665V217.191H149.487V166.647H133.977Z" fill="#262626"/>
<path d="M155.606 166.647V168.554H161.019V217.191H155.606V219.307H177.234V217.191H171.82V166.647H155.606Z" fill="#262626"/>
<path d="M201.262 210.263C201.262 215.889 198.933 218.216 195.101 218.216C191.269 218.216 188.952 215.889 188.952 210.263V195.501C188.952 189.874 191.281 187.547 195.101 187.547C198.921 187.547 201.262 189.874 201.262 195.501V210.263ZM212.968 202.851C212.968 192.57 205.008 185.454 195.101 185.454C185.194 185.454 177.234 192.583 177.234 202.851C177.234 213.119 185.194 220.248 195.101 220.248C205.008 220.248 212.968 213.119 212.968 202.851Z" fill="#262626"/>
<path d="M39 232.643H44.3491V266.277C44.3491 278.011 52.5359 285.133 65.0045 285.133C79.0803 285.133 85.1953 277.787 85.1953 266.65V237.888C85.1953 233.5 86.4133 232.63 89.1757 232.63H90.7202V230.604H77.2722V232.63H78.239C82.1441 232.63 82.684 233.799 82.684 238.186V267.396C82.684 277.7 76.23 282.386 69.6755 282.386C58.5128 282.386 56.2903 274.966 55.6248 265.271V232.618H60.6348V230.592H39V232.618V232.643Z" fill="#262626"/>
<path d="M170.73 285.133H172.823L184.336 258.198C186.659 253.169 187.91 252.525 189.697 252.449H190.399V250.339H178.273V252.462H179.754C182.013 252.462 183.047 252.323 183.047 254.319C183.047 255.557 182.651 256.77 181.732 258.994L176.448 271.312L167.986 252.462H172.3V250.339H152.784V252.462H156.435L170.743 285.12L170.73 285.133Z" fill="#262626"/>
<path d="M255.582 285.133H257.381C257.753 283.907 258.534 283.288 260.047 283.288C262.007 283.288 264.351 285.133 268.581 285.133C275.763 285.133 280.674 278.826 280.674 272.506C280.674 263.114 274.324 262.419 266.249 261.256C262.02 260.636 259.626 260.03 259.626 256.629C259.626 253.014 262.727 251.497 266.807 251.497C272.476 251.497 274.671 255.327 276.556 260.333H278.342V249.399H276.631C276.631 250.322 275.849 251.093 274.411 251.093C271.992 251.093 270.02 249.399 266.547 249.399C258.993 249.399 255.284 255.947 255.284 260.877C255.284 270.812 262.689 271.659 268.432 272.354C273.877 273.049 275.837 273.403 275.837 276.942C275.837 281.025 272.513 282.883 268.432 282.883C262.689 282.883 258.745 277.827 257.381 272.202H255.582V285.133Z" fill="#262626"/>
<path d="M150.437 282.103V250.339H134.917V252.58H140.086V282.103H134.917V284.193H155.606V282.103H150.437Z" fill="#262626"/>
<path d="M139.619 240.466C139.619 243.335 141.922 245.638 144.791 245.638C147.661 245.638 149.963 243.335 149.963 240.466C149.963 237.596 147.673 235.294 144.791 235.294C141.91 235.294 139.619 237.596 139.619 240.466Z" fill="#262626"/>
<path d="M287.257 240.466C287.257 243.335 289.56 245.638 292.429 245.638C295.298 245.638 297.601 243.335 297.601 240.466C297.601 237.596 295.31 235.294 292.429 235.294C289.547 235.294 287.257 237.596 287.257 240.466Z" fill="#262626"/>
<path d="M214.731 133.328V128.295C214.731 123.273 216.896 121.698 219.428 121.698C223.012 121.698 224.125 124.172 224.125 128.295V133.328H214.731ZM214.731 135.371H235.304C235.231 127.273 227.782 119.483 219.954 119.63C211.16 119.63 203.564 127.273 203.564 137.402C203.564 147.53 210.646 154.422 220.186 154.422C229.727 154.422 233.898 148.724 235.537 141.303H233.506C231.867 148.281 228.235 152.231 222.425 152.231C215.502 152.231 214.756 146.767 214.756 141.672V135.371H214.731Z" fill="#262626"/>
<path d="M306.275 133.328V128.295C306.275 123.273 308.504 121.698 311.11 121.698C313.855 121.698 315.945 123.249 315.945 128.295V133.328H306.275ZM306.275 135.371H327.453C327.378 127.273 319.71 119.483 311.652 119.63C302.599 119.63 294.78 127.273 294.78 137.402C294.78 147.53 302.07 154.422 311.891 154.422C321.712 154.422 326.005 148.724 327.693 141.303H325.603C323.915 148.281 320.176 152.231 314.195 152.231C307.069 152.231 306.301 146.767 306.301 141.672V135.371H306.275Z" fill="#262626"/>
<path d="M127.774 282.112V261.494C127.774 253.247 124.265 249.399 117.009 249.399C111.897 249.399 106.709 252.332 104.641 256.769V250.59H88.8395V252.645H94.1026V282.125H88.8395V284.193H109.152V282.125H104.641V261.97C105.293 259.138 108.889 252.595 113.062 252.595C115.831 252.595 117.235 253.548 117.235 258.674V282.112H112.887V284.18H133.037V282.112H127.774Z" fill="#262626"/>
<path d="M251.891 217.283V197.222C251.891 189.198 248.383 185.454 241.13 185.454C236.019 185.454 230.832 188.308 228.765 192.625V186.613H212.968V188.613H218.229V217.295H212.968V219.307H233.275V217.295H228.765V197.686C229.417 194.93 233.012 188.564 237.184 188.564C239.952 188.564 241.368 189.491 241.368 194.478V217.283H237.021V219.295H257.165V217.283H251.904H251.891Z" fill="#262626"/>
<path d="M198.301 151.401V130.783C198.301 122.536 194.792 118.688 187.537 118.688C182.424 118.688 177.236 121.621 175.169 126.058V119.879H159.367V121.934H164.63V151.414H159.367V153.482H179.68V151.414H175.169V131.259C175.82 128.427 179.417 121.884 183.589 121.884C186.359 121.884 187.762 122.837 187.762 127.963V151.401H183.414V153.469H203.564V151.401H198.301Z" fill="#262626"/>
<path d="M278.793 109.754C278.793 112.624 281.096 114.926 283.965 114.926C286.835 114.926 289.137 112.624 289.137 109.754C289.137 106.885 286.847 104.582 283.965 104.582C281.084 104.582 278.793 106.885 278.793 109.754Z" fill="#262626"/>
<path d="M348.753 250.692V252.904C351.997 252.904 353.407 253.204 353.407 254.667C353.407 255.892 353.02 257.092 352.122 259.292L346.956 271.481L338.709 252.904H343.026V250.692H316.826V234.353H315.453C315.453 242.416 309.976 250.729 302.303 250.729V252.904H306.333V276.469C306.333 283.707 312.559 285.144 314.692 285.144C319.333 285.144 322.452 283.244 324.798 279.281L323.176 278.381C322.265 279.756 321.043 281.581 319.146 281.581C317.624 281.581 316.826 280.506 316.826 277.981V252.892H327.418L341.304 284.982L336.501 296.333V296.358H336.488C336.389 296.57 336.164 296.72 335.915 296.72C335.64 296.72 335.416 296.533 335.316 296.295C335.316 296.295 335.316 296.27 335.316 296.257C334.692 294.057 332.708 292.445 330.3 292.445C327.393 292.445 325.06 294.782 325.06 297.695C325.06 299.745 326.22 301.483 327.917 302.358C327.917 302.358 327.905 302.358 327.892 302.358C327.942 302.383 328.004 302.408 328.054 302.433C328.154 302.483 328.254 302.533 328.366 302.57C328.953 302.808 329.589 302.958 330.275 302.97C334.692 303.345 336.95 300.083 338.497 296.758C338.847 296.007 339.171 295.245 339.47 294.52C340.132 292.907 341.304 290.145 342.677 286.907L343.999 283.807L354.692 258.48C356.962 253.505 357.848 252.867 360.606 252.867V250.679H348.753V250.692Z" fill="#262626"/>
<path d="M151.446 118.688C146.548 118.688 142.793 122.03 141.349 125.834H141.199V120.047H125.514V122.167H130.788V151.399H125.514V153.482H148.394V151.399H141.362V135.037C141.362 130.149 142.655 125.148 145.883 122.392C146.071 122.255 146.322 122.217 146.548 122.329C146.799 122.454 146.925 122.716 146.887 122.978C146.674 123.577 146.511 124.287 146.473 125.148C146.372 127.904 148.696 130.086 151.672 130.086C155.339 130.086 157.486 127.43 157.486 124.537C157.486 120.895 155.037 118.688 151.446 118.688Z" fill="#262626"/>
<path d="M265.744 121.727C265.891 121.689 266.075 121.602 266.198 121.727C266.321 121.852 266.309 121.989 266.223 122.139C265.769 122.926 265.597 123.9 265.953 124.949C266.296 125.973 267.167 126.785 268.211 127.022C270.346 127.522 272.211 125.911 272.211 123.837C272.211 122.489 271.389 121.477 270.444 120.865C269.499 120.265 268.37 119.978 267.155 119.978C265.167 119.978 263.13 121.065 261.67 122.364C261.339 122.114 260.983 121.877 260.602 121.664C258.541 120.44 255.866 119.628 252.319 119.628C246.036 119.628 239.312 123.812 239.312 130.732C239.312 134.915 241.557 138.188 245.521 140.011V140.161C242.6 140.536 238.048 142.596 238.048 148.916C238.048 152.725 239.766 155.61 242.907 156.522V156.672C239.913 157.509 236.477 160.556 236.477 164.203C236.477 169.836 242.981 174.17 251.276 174.17C261.67 174.17 268.468 167.013 268.468 157.734C268.468 150.352 264.885 147.005 257.559 147.155H245.153C243.288 147.155 242.036 147.08 242.036 145.019C242.036 143.121 244.907 141.06 247.742 141.06C248.245 141.06 249.055 141.447 249.264 141.522C250.16 141.822 251.141 141.984 252.332 141.984C258.762 141.984 265.634 138.25 265.634 131.031C265.634 128.796 264.676 125.736 262.897 123.837C262.787 123.725 262.799 123.55 262.922 123.45C263.646 122.876 264.48 122.376 264.873 122.151C265.192 121.964 265.45 121.839 265.756 121.739H265.781L265.744 121.727ZM255.817 156.735C263.29 156.735 265.278 157.047 265.278 161.693C265.278 167.251 258.59 172.346 251.043 172.346C244.318 172.346 241.091 168.15 240.932 164.49C240.932 161.143 242.564 158.933 244.588 156.735H255.817ZM257.081 130.744C257.081 139.587 255.068 139.886 252.368 139.886C249.374 139.886 247.803 139.299 247.803 130.519C247.803 124.349 248.478 121.739 252.368 121.739C255.878 121.739 257.007 121.976 257.081 130.732V130.756V130.744Z" fill="#262626"/>
<path d="M247.353 249.399C242.457 249.399 238.704 252.741 237.26 256.545H237.11V250.758H221.431V252.879H226.703V282.11H221.431V284.193H244.303V282.11H237.273V265.748C237.273 260.86 238.553 255.872 241.792 253.115C241.98 252.978 242.231 252.941 242.445 253.053C242.696 253.178 242.821 253.44 242.784 253.702V253.727C242.595 254.313 242.432 255.011 242.395 255.872C242.294 258.628 244.617 260.81 247.592 260.81C251.257 260.81 253.404 258.154 253.404 255.26C253.404 251.619 250.956 249.412 247.366 249.412L247.353 249.399Z" fill="#262626"/>
</svg>
