<svg width="400" height="400" viewBox="0 0 400 400" fill="none" xmlns="http://www.w3.org/2000/svg">
<path d="M62.6815 201.225V196.588L66.2295 196.81L80.7143 197.642V150.054L0 129V243.859L62.6815 235.768V201.237V201.225Z" fill="#262626"/>
<path d="M77.9976 242.595L59.8711 246.623V271.881L77.9976 266.19V242.595Z" fill="#262626"/>
<path d="M93.3255 202.326L80.7143 201.892L66.2295 201.365V242.115L80.6791 239.223V251.483L99.9414 247.185V202.583L93.3255 202.326Z" fill="#262626"/>
<path d="M119.239 149.223H137.365C153.782 149.223 164.508 158.977 164.508 175.745C164.508 192.513 153.782 202.408 137.365 202.408H119.239V149.223ZM136.874 194.094C147.682 194.094 154.555 187.7 154.555 175.757C154.555 163.813 147.506 157.548 136.874 157.548H128.958V194.094H136.874Z" fill="#262626"/>
<path d="M172.026 164.199H181.522V202.407H172.026V164.199Z" fill="#262626"/>
<path d="M204.988 210.066C210.855 210.066 215.796 207.618 215.796 200.792V198.555C215.796 197.63 215.925 196.541 215.925 196.541H215.796C213.56 199.913 210.234 201.705 205.164 201.705C194.215 201.705 187.998 192.864 187.998 182.361C187.998 171.857 193.911 163.321 204.941 163.321C213.255 163.321 216.229 168.18 216.229 168.18H216.452C216.452 168.18 216.37 167.747 216.37 167.126V164.187H225.304V200.077C225.304 213.204 215.105 218.157 205.164 218.157C200.351 218.157 195.269 216.799 191.592 214.878L194.438 207.607C194.438 207.607 199.25 210.054 204.988 210.054V210.066ZM216.019 182.407C216.019 173.696 211.721 171.377 206.569 171.377C200.796 171.377 197.599 175.581 197.599 182.009C197.599 188.438 201.054 193.602 207.19 193.602C211.745 193.649 216.03 191.026 216.03 182.396L216.019 182.407Z" fill="#262626"/>
<path d="M233.97 164.199H243.466V202.407H233.97V164.199Z" fill="#262626"/>
<path d="M253.583 172.384H248.63V164.808H253.794V153.777H263.068V164.808H271.78V172.384H263.068V187.22C263.068 193.52 268.021 194.398 270.644 194.398C271.698 194.398 272.354 194.269 272.354 194.269V202.583C272.354 202.583 271.218 202.806 269.415 202.806C264.075 202.806 253.525 201.225 253.525 188.403L253.572 172.384H253.583Z" fill="#262626"/>
<path d="M298.361 178.461H299.637V177.935C299.637 172.899 296.487 171.19 292.283 171.19C286.815 171.19 281.78 174.867 281.78 174.867L278.185 168.04C278.185 168.04 284.098 163.309 293.15 163.309C303.173 163.309 309.04 168.871 309.04 178.543V202.443H300.281V199.293C300.281 197.806 300.41 196.576 300.41 196.576H300.281C300.363 196.576 297.342 203.321 288.689 203.321C281.862 203.321 275.738 199.023 275.738 191.412C275.738 179.246 292.155 178.461 298.361 178.461ZM291.089 195.885C296.124 195.885 299.707 190.499 299.707 185.862V184.937H298.045C293.185 184.937 285.305 185.593 285.305 190.932C285.305 193.508 287.19 195.885 291.077 195.885H291.089Z" fill="#262626"/>
<path d="M317.002 149.223H326.452V189.094C326.452 193.297 327.892 194.351 330.351 194.351C331.089 194.351 331.791 194.269 331.791 194.269V202.583C331.791 202.583 330.351 202.806 328.817 202.806C323.56 202.806 317.049 201.447 317.049 190.511L317.002 149.234V149.223Z" fill="#262626"/>
<path d="M176.757 159.726C180.113 159.726 182.834 157.005 182.834 153.649C182.834 150.292 180.113 147.571 176.757 147.571C173.4 147.571 170.679 150.292 170.679 153.649C170.679 157.005 173.4 159.726 176.757 159.726Z" fill="#262626"/>
<path d="M238.735 159.726C242.092 159.726 244.813 157.005 244.813 153.649C244.813 150.292 242.092 147.571 238.735 147.571C235.379 147.571 232.658 150.292 232.658 153.649C232.658 157.005 235.379 159.726 238.735 159.726Z" fill="#262626"/>
<path d="M119.239 213.04H139.766C149.743 213.04 156.71 219.995 156.71 230.335C156.71 240.674 149.754 247.888 139.766 247.888H128.911V266.225H119.239V213.04ZM137.974 239.48C143.572 239.48 146.909 235.885 146.909 230.335C146.909 224.785 143.63 221.365 138.15 221.365H128.911V239.492H137.974V239.48Z" fill="#262626"/>
<path d="M161.616 228.016H170.761V234.632C170.761 236.073 170.632 237.349 170.632 237.349H170.761C172.471 231.881 177.061 227.536 182.892 227.536C183.817 227.536 184.602 227.665 184.602 227.665V237.033C184.602 237.033 183.642 236.904 182.365 236.904C178.337 236.904 173.747 239.223 171.944 244.913C171.335 246.799 171.112 248.895 171.112 251.131V266.272H161.616V228.016Z" fill="#262626"/>
<path d="M207.401 227.138C219.087 227.138 228.454 235.452 228.454 247.138C228.454 258.824 219.087 267.138 207.483 267.138C195.878 267.138 186.429 258.906 186.429 247.138C186.382 235.452 195.749 227.138 207.401 227.138ZM207.447 259.047C213.583 259.047 218.735 254.234 218.735 247.138C218.735 240.042 213.571 235.23 207.447 235.23C201.323 235.23 196.066 240.089 196.066 247.138C196.066 254.187 201.23 259.047 207.447 259.047Z" fill="#262626"/>
<path d="M234.719 228.016H243.864V232.431C243.864 233.871 243.735 235.054 243.735 235.054H243.864C245.749 231.295 250.304 227.138 256.3 227.138C262.295 227.138 265.89 229.855 267.459 235.019H267.588C269.684 230.909 274.637 227.138 280.632 227.138C288.548 227.138 293.15 231.646 293.15 241.67V266.225H283.653V243.461C283.653 239.129 282.822 235.803 278.396 235.803C273.536 235.803 270.304 239.703 269.157 244.515C268.759 246.002 268.723 247.665 268.723 249.468V266.237H259.227V243.473C259.227 239.363 258.571 235.815 254.063 235.815C249.11 235.815 245.878 239.714 244.695 244.574C244.297 246.014 244.262 247.724 244.262 249.433V266.201H234.766L234.719 228.028V228.016Z" fill="#262626"/>
<path d="M301.593 228.016H311.089V266.225H301.593V228.016Z" fill="#262626"/>
<path d="M321.206 254.843C321.206 254.843 325.41 259.047 331.628 259.047C334.345 259.047 336.663 257.864 336.663 255.592C336.663 249.902 318.056 250.639 318.056 238.344C318.056 231.213 324.45 227.091 332.682 227.091C340.914 227.091 345.504 231.424 345.504 231.424L342.003 238.473C342.003 238.473 338.501 235.194 332.635 235.194C330.188 235.194 327.775 236.248 327.775 238.649C327.775 244.035 346.382 243.379 346.382 255.674C346.382 262.068 340.82 267.138 331.757 267.138C322.693 267.138 316.921 261.541 316.921 261.541L321.218 254.843H321.206Z" fill="#262626"/>
<path d="M369.098 227.138C380.129 227.138 386.042 235.148 386.042 245.265C386.042 246.4 385.82 248.941 385.82 248.941H359.426C360.035 255.593 365.199 259.059 370.89 259.059C377.026 259.059 381.92 254.855 381.92 254.855L385.597 261.682C385.597 261.682 379.731 267.15 370.234 267.15C357.588 267.15 349.707 258.005 349.707 247.15C349.707 235.382 357.717 227.15 369.098 227.15V227.138ZM376.452 242.419C376.323 237.255 373.08 234.504 368.876 234.504C364.016 234.504 360.644 237.478 359.731 242.419H376.452Z" fill="#262626"/>
<path d="M394.438 226.963C397.506 226.963 400 229.457 400 232.607C400 235.756 397.553 238.251 394.438 238.251C391.323 238.251 388.97 235.71 388.97 232.607C388.97 229.504 391.417 226.963 394.438 226.963ZM394.438 236.986C396.803 236.986 398.642 235.066 398.642 232.571C398.642 230.077 396.85 228.192 394.438 228.192C392.026 228.192 390.328 230.112 390.328 232.571C390.328 235.03 392.12 236.986 394.438 236.986ZM392.518 229.726H394.836C395.937 229.726 396.675 230.429 396.675 231.518C396.675 232.396 396.066 232.876 395.668 232.958V233.005C395.668 233.005 395.714 233.052 395.89 233.309L396.944 235.323H395.504L394.544 233.262H393.841V235.323H392.529V229.726H392.518ZM394.579 232.349C395.106 232.349 395.41 232.044 395.41 231.518C395.41 230.991 395.106 230.686 394.625 230.686H393.841V232.349H394.579Z" fill="#262626"/>
<path d="M306.37 223.239C309.726 223.239 312.447 220.518 312.447 217.162C312.447 213.805 309.726 211.084 306.37 211.084C303.014 211.084 300.293 213.805 300.293 217.162C300.293 220.518 303.014 223.239 306.37 223.239Z" fill="#262626"/>
</svg>
